<?xml version="1.0" standalone="no"?>
<!DOCTYPE svg PUBLIC "-//W3C//DTD SVG 20010904//EN"
 "http://www.w3.org/TR/2001/REC-SVG-20010904/DTD/svg10.dtd">
<svg version="1.0" xmlns="http://www.w3.org/2000/svg"
 width="768.000000pt" height="768.000000pt" viewBox="0 0 768.000000 768.000000"
 preserveAspectRatio="xMidYMid meet">
<metadata>
Created by potrace 1.14, written by Peter Selinger 2001-2017
</metadata>
<g transform="translate(0.000000,768.000000) scale(0.100000,-0.100000)"
fill="#000000" stroke="none">
<path d="M0 3840 l0 -3840 3840 0 3840 0 0 3840 0 3840 -3840 0 -3840 0 0
-3840z m4209 2113 c85 -16 127 -33 82 -33 -18 0 -22 -4 -18 -20 3 -11 1 -18
-3 -15 -5 3 -12 -11 -16 -31 -3 -19 -13 -38 -20 -41 -8 -3 -14 -18 -14 -33 0
-32 -9 -35 -95 -39 -33 -1 -100 -9 -150 -17 -49 -9 -115 -19 -145 -24 -30 -5
-75 -13 -100 -18 -25 -6 -61 -12 -80 -15 -63 -10 -155 -29 -175 -37 -11 -4
-40 -13 -65 -20 -25 -7 -54 -16 -65 -20 -11 -4 -63 -20 -115 -35 -122 -34
-184 -58 -295 -112 -75 -37 -98 -44 -141 -42 -27 1 -56 -1 -62 -5 -12 -7 -181
-10 -215 -3 -7 1 -11 -4 -9 -11 1 -8 -2 -11 -8 -7 -13 8 -73 -21 -102 -49 -13
-13 -57 -50 -98 -82 -41 -33 -96 -80 -121 -105 -58 -56 -179 -214 -179 -234 0
-8 -4 -15 -8 -15 -13 0 -96 -163 -142 -280 -70 -175 -118 -358 -143 -540 -16
-114 -16 -556 0 -640 34 -185 59 -280 112 -437 33 -95 57 -173 55 -173 -2 0
-12 19 -23 43 -68 154 -133 368 -152 504 -6 42 -15 87 -20 101 -16 43 -23 357
-10 487 36 368 118 649 265 907 20 37 42 70 47 73 4 3 15 20 24 38 19 39 175
246 230 306 86 93 119 125 212 203 332 279 760 448 1243 492 97 9 436 -5 519
-21z m-479 -443 c-14 -4 -32 -8 -40 -9 -13 -1 -13 0 0 9 8 5 26 9 40 9 l25 -1
-25 -8z m-80 -29 c-8 -6 -17 -8 -21 -5 -4 2 -6 -12 -5 -32 1 -20 -3 -38 -8
-41 -5 -4 -6 -1 -3 4 4 6 -1 17 -10 24 -14 12 -16 12 -11 -2 3 -9 2 -22 -3
-30 -6 -10 -9 -8 -10 11 0 23 -1 23 -8 5 -5 -11 -5 -25 0 -31 6 -7 3 -16 -6
-24 -9 -7 -13 -21 -10 -30 3 -10 -4 -28 -15 -41 l-21 -24 7 24 c4 16 3 21 -5
17 -6 -4 -11 -14 -11 -22 0 -8 -5 -14 -11 -14 -19 0 -41 -28 -28 -36 8 -5 7
-10 -5 -16 -9 -5 -16 -16 -16 -23 0 -8 -6 -15 -12 -15 -9 0 -8 -4 2 -10 8 -5
10 -10 4 -10 -7 0 -14 -10 -17 -22 -4 -12 -9 -19 -13 -16 -11 12 -36 -22 -31
-42 3 -13 1 -17 -9 -13 -8 3 -14 -1 -14 -11 0 -9 -7 -16 -15 -16 -8 0 -15 -8
-15 -17 0 -10 -5 -25 -11 -33 -9 -13 -10 -12 -5 2 3 10 1 20 -4 23 -6 4 -10
-3 -10 -14 0 -12 -7 -21 -15 -21 -8 0 -15 -7 -15 -15 0 -8 5 -15 11 -15 5 0 7
5 4 10 -3 6 -1 10 4 10 6 0 11 -6 11 -14 0 -17 -27 -29 -32 -14 -3 8 -13 8
-37 0 -18 -7 -37 -9 -42 -6 -5 3 -9 0 -9 -5 0 -6 8 -12 18 -12 16 -1 16 -2 0
-6 -10 -2 -18 -9 -18 -15 0 -6 -6 -6 -15 2 -12 10 -15 10 -15 -4 0 -9 -5 -16
-11 -16 -5 0 -7 5 -4 10 3 6 1 10 -4 10 -6 0 -11 -4 -11 -9 0 -4 -12 -6 -26
-3 -15 3 -29 -1 -34 -8 -5 -7 -33 -15 -64 -18 -31 -2 -56 -9 -56 -14 0 -7 -20
-8 -54 -4 -40 5 -55 4 -59 -6 -6 -16 -53 -22 -62 -8 -11 18 -38 11 -68 -17
l-29 -28 19 34 c10 19 22 40 26 45 4 6 26 36 48 66 43 58 138 160 205 221 61
55 204 159 219 159 7 0 15 4 17 8 9 22 246 126 346 152 19 4 36 11 39 14 4 3
22 6 42 6 26 0 32 -3 21 -9z m-926 -686 c-7 -16 -24 -21 -24 -6 0 8 7 13 27
20 1 1 0 -6 -3 -14z m69 8 c-7 -2 -19 -2 -25 0 -7 3 -2 5 12 5 14 0 19 -2 13
-5z m1419 -494 c-117 -11 -116 -9 -136 -249 -14 -160 -21 -665 -10 -693 10
-28 110 -86 167 -98 29 -6 88 -23 132 -37 44 -14 107 -28 140 -32 33 -4 -88
-8 -271 -9 -294 -1 -333 1 -338 15 -3 9 -6 263 -6 565 l0 549 203 -1 c170 -2
189 -3 119 -10z m-2314 -1534 c-3 -3 -9 2 -12 12 -6 14 -5 15 5 6 7 -7 10 -15
7 -18z"/>
<path d="M2939 4877 c5 -5 19 -7 32 -5 20 3 19 5 -9 9 -20 3 -29 2 -23 -4z"/>
<path d="M2893 4853 c9 -2 23 -2 30 0 6 3 -1 5 -18 5 -16 0 -22 -2 -12 -5z"/>
</g>
</svg>
